<?xml version="1.0" standalone="no"?>
<!DOCTYPE svg PUBLIC "-//W3C//DTD SVG 1.1//EN" "http://www.w3.org/Graphics/SVG/1.1/DTD/svg11.dtd" >
<svg xmlns="http://www.w3.org/2000/svg" xmlns:xlink="http://www.w3.org/1999/xlink" version="1.1">
<metadata>
Created by FontForge 20170910 at Fri Jan  1 01:00:00 1904
 By Jimmy Wärting
Copyright 1988-1991 Adobe Systems Inc.
</metadata>
<defs>
<font id="HelveticaNeue-Bold" horiz-adv-x="1139" >
  <font-face 
    font-family="Helvetica 55 Roman"
    font-weight="700"
    font-stretch="normal"
    units-per-em="2048"
    panose-1="2 11 8 0 0 0 0 0 0 0"
    ascent="1638"
    descent="-410"
    x-height="1059"
    cap-height="1462"
    bbox="-340 -446 2208 1996"
    underline-thickness="102"
    underline-position="-256"
    unicode-range="U+0020-F002"
  />
<missing-glyph horiz-adv-x="0" 
 />
    <glyph glyph-name=".notdef" horiz-adv-x="0" 
 />
    <glyph glyph-name="glyph1" horiz-adv-x="0" 
 />
    <glyph glyph-name="equal" unicode=" " horiz-adv-x="569" 
 />
    <glyph glyph-name="uni00A0" unicode="&#xa0;" horiz-adv-x="569" 
 />
    <glyph glyph-name="greater" unicode="!" horiz-adv-x="569" 
d="M436 1462h-303v-393l78 -631h145l80 631v393zM125 0h321v315h-321v-315z" />
    <glyph glyph-name="question" unicode="&#x22;" horiz-adv-x="948" 
d="M555 805h219v657h-219v-657zM174 805h219v657h-219v-657z" />
    <glyph glyph-name="at" unicode="#" 
d="M180 0h199l57 405h197l-56 -405h199l55 405h179v185h-152l35 254h178v184h-152l56 405h-199l-55 -405h-199l58 405h-199l-57 -405h-195v-184h170l-37 -254h-194v-185h170zM694 844l-35 -254h-198l37 254h196z" />
    <glyph glyph-name="A" unicode="$" 
d="M508 924q-189 36 -184 163q2 86 59 129q55 41 125 41v-333zM629 598v0q121 -31 172 -72q49 -41 49 -121q-2 -98 -72 -143q-67 -49 -149 -57v393zM-2 475q51 -479 510 -510v-174h121v174q153 15 254 64q100 51 157 118q58 70 80 136q21 65 21 110q0 53 -6 119
q-9 65 -48 131q-34 66 -120 125q-84 59 -234 100q-55 15 -104 27v362q73 -2 121 -55q47 -57 49 -141h290q-16 211 -143 315q-129 105 -317 121v158h-121v-158q-191 -8 -330 -117q-143 -110 -145 -321q0 -101 37 -168q34 -70 92 -115q59 -45 131 -74q72 -30 149 -51
q43 -8 66 -18v-428q-94 20 -156 88q-61 67 -63 182h-291z" />
    <glyph glyph-name="B" unicode="%" horiz-adv-x="2048" 
d="M154 1057q-2 -172 75 -281q78 -110 262 -112q181 2 265 110q82 105 82 275q0 174 -72 292q-39 56 -102 90q-68 31 -162 31q-176 -2 -262 -117q-86 -114 -86 -288v0zM362 1053q-2 77 21 165q16 41 43 66t76 25q90 -5 110 -97q13 -41 15 -86q2 -43 2 -75q2 -70 -19 -148
q-12 -37 -39 -59q-28 -27 -77 -27q-95 2 -115 86q-19 78 -17 150v0zM520 -45h178l844 1524h-174zM1210 375q-2 -172 76 -285q78 -117 262 -119q180 2 264 115q82 111 82 281q0 174 -71 288q-76 113 -265 115q-176 -2 -262 -113q-86 -110 -86 -282v0zM1419 373q0 37 6 80
q2 41 15 77q16 39 43 64q26 22 75 22q91 -4 111 -92q12 -39 14 -80t2 -73q2 -72 -18 -154q-12 -37 -39 -63q-29 -29 -78 -29t-76 29q-26 26 -38 63q-13 41 -15 82t-2 74v0z" />
    <glyph glyph-name="C" unicode="&#x26;" horiz-adv-x="1403" 
d="M782 1145q-2 -78 -43 -123q-43 -47 -106 -86v0q-43 51 -76 102q-39 51 -39 117q0 59 41 94q37 35 90 35q58 0 94 -39q39 -41 39 -100v0zM547 645l250 -305q-50 -57 -107 -92q-59 -37 -139 -37q-84 0 -146 57q-63 54 -63 135q2 88 66 150q59 59 139 92v0zM950 145
l119 -145h356l-297 346q121 160 142 361h-252q-10 -93 -53 -175v0l-189 232q113 57 186 149q72 90 74 215q-2 176 -117 265q-114 86 -284 86q-150 -2 -262 -91q-117 -88 -119 -243q0 -94 41 -166q39 -72 98 -146q-133 -59 -227 -163q-98 -107 -100 -260q2 -207 139 -322
q131 -115 334 -117q243 2 411 174v0z" />
    <glyph glyph-name="Ucircumflex" unicode="&#x2019;" horiz-adv-x="569" 
d="M139 1147h135q0 -74 -26 -127q-29 -51 -109 -80v-135q131 20 213 114q80 93 78 230v313h-291v-315z" />
    <glyph glyph-name="E" unicode="(" horiz-adv-x="606" 
d="M377 1497q-135 -199 -203 -455q-68 -258 -68 -493q5 -492 271 -922h241q-223 451 -221 942q-2 486 223 928h-243z" />
    <glyph glyph-name="F" unicode=")" horiz-adv-x="606" 
d="M229 -373q136 201 203 457q68 256 68 489q-4 492 -271 924h-241q223 -453 221 -944q0 -485 -223 -926h243z" />
    <glyph glyph-name="G" unicode="*" horiz-adv-x="833" 
d="M496 1206v256h-164v-256v0l-232 90v0l-55 -157l238 -80l-152 -201l137 -100v0l144 211v0l151 -211v0l135 100l-151 201l241 80l-55 157v0l-237 -90v0z" />
    <glyph glyph-name="H" unicode="+" horiz-adv-x="1229" 
d="M725 1034h-219v-407h-408v-219h408v-408h219v408h407v219h-407v407z" />
    <glyph glyph-name="I" unicode="," horiz-adv-x="569" 
d="M125 0h147q2 -70 -36 -123q-41 -55 -109 -69v-148q135 23 227 111q90 88 92 229v315h-321v-315z" />
    <glyph glyph-name="J" unicode="-" horiz-adv-x="833" 
d="M109 434h616v250h-616v-250z" />
    <glyph glyph-name="uni00AD" unicode="&#xad;" horiz-adv-x="833" 
d="M109 434h616v250h-616v-250z" />
    <glyph glyph-name="K" unicode="." horiz-adv-x="569" 
d="M123 0h321v315h-321v-315z" />
    <glyph glyph-name="L" unicode="/" horiz-adv-x="760" 
d="M-23 -35h234l571 1532h-233z" />
    <glyph glyph-name="M" unicode="0" 
d="M43 723q2 -420 158 -590q147 -164 366 -162q221 -2 373 162q152 170 156 590q-4 414 -156 579q-152 162 -373 160q-219 2 -366 -160q-156 -165 -158 -579v0zM334 723q0 61 4 143q6 82 27 164q20 82 69 137q49 54 133 56q88 -2 140 -56q49 -55 69 -137q21 -82 27 -164
q2 -82 2 -143q0 -59 -2 -146q-6 -83 -27 -169q-20 -82 -69 -138q-52 -59 -140 -59q-84 0 -133 59q-49 56 -69 138q-21 86 -27 169q-4 87 -4 146v0z" />
    <glyph glyph-name="N" unicode="1" 
d="M803 1433h-232q-24 -159 -143 -225q-119 -65 -276 -59v-219h360v-930h291v1433z" />
    <glyph glyph-name="O" unicode="2" 
d="M354 883q-2 120 51 223q50 102 177 106q96 0 155 -59q58 -59 60 -162q0 -65 -27 -115q-29 -51 -76 -92q-43 -39 -96 -73q-53 -37 -102 -70q-93 -59 -172 -121q-84 -63 -146 -137q-127 -141 -135 -383h1053v250h-678q82 108 194 184l219 146q111 73 183 176q71 100 73 258
q-4 213 -147 331q-141 115 -344 117q-258 -2 -391 -166q-133 -161 -129 -413h278z" />
    <glyph glyph-name="P" unicode="3" 
d="M467 649h115q57 -4 106 -24q51 -19 82 -62q29 -45 29 -127q-2 -102 -66 -162q-67 -63 -168 -63q-125 2 -186 84q-60 80 -66 199h-276q0 -248 145 -383q144 -138 387 -140q219 2 373 125q156 121 160 346q0 123 -66 211q-67 88 -188 115v4q102 31 151 111q50 79 50 182
q-5 194 -154 297q-148 100 -328 100q-223 -2 -352 -135q-131 -135 -143 -360h276q0 114 57 184q56 70 164 72q82 0 144 -50q57 -49 59 -141q0 -59 -29 -96q-28 -39 -75 -57q-45 -17 -99 -23q-53 -6 -102 -2v-205z" />
    <glyph glyph-name="Q" unicode="4" 
d="M639 0h276v332h191v239h-191v862h-260l-622 -835v-266h606v-332zM639 571h-377l371 498h6v-498z" />
    <glyph glyph-name="R" unicode="5" 
d="M1024 1433h-801l-141 -792h262q41 57 92 88q51 27 127 27q119 -2 184 -76q64 -76 64 -193q0 -110 -66 -190q-65 -84 -182 -86q-96 0 -160 61q-61 58 -75 154h-291q10 -223 164 -338q153 -117 368 -117q224 2 377 148q152 143 156 368q0 209 -115 346q-115 140 -328 142
q-165 2 -280 -111l-4 4l57 326h592v239z" />
    <glyph glyph-name="S" unicode="6" 
d="M1071 1065q-27 192 -149 295q-125 102 -316 102q-301 -6 -434 -241q-131 -230 -129 -508q-4 -283 115 -504q116 -232 436 -238q229 4 364 154q136 147 138 371q0 178 -111 319q-133 143 -330 147q-207 3 -323 -159l-4 4q4 63 18 137q14 76 45 143q31 70 82 113
q53 41 129 43q78 -2 129 -51q51 -51 64 -127h276zM586 743q112 -2 168 -84q51 -79 51 -186q0 -100 -55 -178q-27 -37 -68 -59q-43 -25 -96 -25q-109 2 -168 86q-64 78 -64 180q0 111 60 189q55 75 172 77v0z" />
    <glyph glyph-name="T" unicode="7" 
d="M1059 1433h-979v-270h680q-420 -510 -481 -1163h311q4 303 125 639q118 336 344 545v249z" />
    <glyph glyph-name="U" unicode="8" 
d="M319 434q0 111 76 170q72 57 178 57q105 -2 174 -61q70 -61 72 -168q-2 -108 -69 -174q-70 -68 -177 -68q-106 0 -178 68q-76 66 -76 176v0zM88 1071q0 -106 55 -184q52 -78 156 -111v-4q-266 -70 -270 -352q4 -230 170 -340q161 -109 374 -109q209 0 369 115
q164 111 168 336q-4 280 -268 350v4q207 78 209 301q0 55 -23 121q-27 66 -82 125t-147 100q-92 39 -228 39q-184 0 -327 -98q-152 -98 -156 -293v0zM352 1044q2 97 68 150q61 49 151 49q68 0 113 -18q43 -19 63 -52q25 -30 33 -65q6 -35 6 -64q-2 -92 -61 -139
q-61 -49 -154 -49q-90 0 -151 49q-66 47 -68 139v0z" />
    <glyph glyph-name="V" unicode="9" 
d="M68 369q28 -189 153 -291q123 -105 311 -107q306 9 437 246q127 229 127 504q2 287 -111 508q-121 227 -440 233q-228 -2 -363 -151q-137 -146 -139 -373q-2 -178 111 -320q135 -145 329 -147q207 -2 324 160l4 -4q-2 -60 -14 -133q-15 -74 -45 -144q-31 -67 -82 -112
q-54 -48 -133 -48q-74 0 -125 54q-52 51 -68 125h-276zM553 690q-111 2 -164 86q-55 78 -55 184q0 103 59 181q55 80 160 82q111 -2 172 -82q59 -78 59 -185q0 -106 -55 -184q-59 -80 -176 -82v0z" />
    <glyph glyph-name="W" unicode=":" horiz-adv-x="569" 
d="M125 0h321v315h-321v-315zM446 1040h-321v-315h321v315z" />
    <glyph glyph-name="X" unicode=";" horiz-adv-x="569" 
d="M125 0h147q2 -70 -36 -123q-41 -55 -109 -69v-148q135 23 227 111q90 88 92 229v315h-321v-315zM446 1040h-321v-315h321v315z" />
    <glyph glyph-name="Y" unicode="&#x3c;" horiz-adv-x="1229" 
d="M1135 1053v0l-1041 -414v-242l1041 -413v0v235l-752 299l752 299v236z" />
    <glyph glyph-name="Z" unicode="=" horiz-adv-x="1229" 
d="M1132 846h-1034v-219h1034v219zM1132 408h-1034v-220h1034v220z" />
    <glyph glyph-name="bracketleft" unicode="&#x3e;" horiz-adv-x="1229" 
d="M94 -16v0l1041 413v242l-1041 414v0v-236l752 -299l-752 -299v-235z" />
    <glyph glyph-name="backslash" unicode="?" 
d="M367 991q2 115 53 191q49 73 157 75q170 0 175 -184q-2 -80 -43 -127q-43 -47 -107 -94q-63 -43 -115 -115q-51 -73 -63 -207v-92h276v78q11 45 29 82q18 33 47 59q29 27 62 52q32 24 63 47q70 49 121 125q49 77 51 221q0 63 -22 131q-27 67 -86 127q-58 59 -156 98
q-100 39 -246 39q-227 -2 -358 -141q-131 -140 -139 -365h301zM395 0h322v315h-322v-315z" />
    <glyph glyph-name="bracketright" unicode="@" horiz-adv-x="1638" 
d="M596 653q0 109 72 203q34 43 82 72q45 26 100 26q69 -2 112 -49q46 -47 46 -125q0 -110 -70 -207q-33 -43 -80 -71q-47 -31 -102 -31q-72 0 -115 51q-45 51 -45 131v0zM1274 1116h-168l-33 -111v0q-35 80 -102 113q-68 31 -138 31q-204 -4 -323 -164q-121 -156 -123 -358
q2 -146 96 -246q90 -102 226 -105q65 0 124 31q60 27 97 88h4q4 -49 45 -82q41 -34 104 -34q52 0 133 34q80 35 158 105q82 73 135 186q54 111 56 268q-5 287 -215 455q-101 84 -228 127t-270 43q-328 -4 -549 -219q-225 -213 -229 -547q4 -334 231 -547q223 -215 557 -219
q399 4 625 332h-172q-170 -166 -441 -168q-268 2 -432 166q-170 162 -172 432q2 266 160 434q154 170 420 172q239 0 395 -127q158 -129 160 -377q-2 -165 -76 -268q-72 -106 -166 -108q-35 2 -33 49q0 43 15 86z" />
    <glyph glyph-name="asciicircum" unicode="A" horiz-adv-x="1403" 
d="M-14 0h325l115 326h547l110 -326h334l-547 1462h-329zM700 1102h4l185 -537h-379z" />
    <glyph glyph-name="underscore" unicode="B" horiz-adv-x="1442" 
d="M463 651h350q106 0 168 -47q63 -49 63 -162q-2 -110 -69 -151q-70 -43 -168 -41h-344v401zM141 0h709q207 0 358 102q154 101 158 322q0 285 -268 371q96 47 149 122q49 76 49 183q-2 202 -129 284q-125 78 -338 78h-688v-1462zM463 1212h301q90 2 153 -30
q66 -35 68 -138q-2 -92 -55 -131q-54 -43 -142 -43h-325v342z" />
    <glyph glyph-name="grave" unicode="C" horiz-adv-x="1517" 
d="M1427 971q-32 256 -209 391q-174 133 -421 135q-340 -4 -529 -221q-188 -217 -190 -551q2 -324 190 -537q189 -219 529 -223q565 15 643 598h-312q-18 -147 -100 -235q-84 -90 -231 -92q-213 4 -306 153q-94 148 -92 336q-2 201 92 348q93 150 306 154q122 -2 213 -72
q88 -72 106 -184h311z" />
    <glyph glyph-name="a" unicode="D" horiz-adv-x="1517" 
d="M141 0h631q334 2 500 213q164 203 164 526q-3 365 -189 545q-184 178 -475 178h-631v-1462zM463 1192h229q238 -2 332 -131q92 -129 90 -352q0 -119 -29 -203q-28 -86 -82 -137q-49 -52 -114 -74q-68 -25 -139 -25h-287v922z" />
    <glyph glyph-name="b" unicode="E" horiz-adv-x="1327" 
d="M141 0h1110v270h-788v359h708v250h-708v313h772v270h-1094v-1462z" />
    <glyph glyph-name="c" unicode="F" horiz-adv-x="1214" 
d="M141 0h322v604h612v250h-612v338h706v270h-1028v-1462z" />
    <glyph glyph-name="d" unicode="G" horiz-adv-x="1554" 
d="M1198 166l33 -166h205v790h-615v-239h324q-31 -313 -348 -315q-213 4 -306 153q-94 148 -92 336q-2 201 92 348q93 150 306 154q241 -2 309 -246h307q-33 250 -209 383t-407 133q-340 -4 -529 -221q-188 -217 -190 -551q2 -324 190 -537q189 -219 529 -223
q223 -4 401 201v0z" />
    <glyph glyph-name="e" unicode="H" horiz-adv-x="1517" 
d="M141 0h322v631h592v-631h321v1462h-321v-561h-592v561h-322v-1462z" />
    <glyph glyph-name="f" unicode="I" horiz-adv-x="604" 
d="M141 0h322v1462h-322v-1462z" />
    <glyph glyph-name="g" unicode="J" 
d="M997 1462h-321v-987q2 -82 -21 -158q-24 -79 -149 -81q-55 0 -90 20q-37 18 -58 49q-41 68 -39 174v66h-290v-127q4 -238 149 -344q144 -109 332 -109q164 2 264 53q98 50 145 125q50 78 66 162q12 84 12 156v1001z" />
    <glyph glyph-name="h" unicode="K" horiz-adv-x="1479" 
d="M141 0h322v471l184 186v0l440 -657h404l-627 885l572 577h-402l-571 -606v0v606h-322v-1462z" />
    <glyph glyph-name="i" unicode="L" horiz-adv-x="1214" 
d="M141 0h1034v270h-712v1192h-322v-1462z" />
    <glyph glyph-name="j" unicode="M" horiz-adv-x="1857" 
d="M141 0h301v1026h4l359 -1026h248l358 1036h4v-1036h301v1462h-452l-324 -1005h-4l-342 1005h-453v-1462z" />
    <glyph glyph-name="k" unicode="N" horiz-adv-x="1517" 
d="M141 0h301v979h4l609 -979h321v1462h-301v-981h-4l-610 981h-320v-1462z" />
    <glyph glyph-name="l" unicode="O" horiz-adv-x="1593" 
d="M78 725q2 -324 190 -537q189 -219 529 -223q344 4 530 223q186 213 188 537q-2 334 -188 551t-530 221q-340 -4 -529 -221q-188 -217 -190 -551v0zM399 725q-2 201 92 348q93 150 306 154q217 -4 309 -154q88 -147 88 -348q0 -188 -88 -336q-92 -149 -309 -153
q-213 4 -306 153q-94 148 -92 336v0z" />
    <glyph glyph-name="m" unicode="P" horiz-adv-x="1366" 
d="M141 0h322v524h338q270 4 391 148q115 137 115 321q0 187 -115 326q-121 139 -391 143h-660v-1462zM463 1212h250q118 2 198 -39q82 -43 84 -180q-2 -135 -84 -178q-37 -25 -88 -33t-110 -8h-250v438z" />
    <glyph glyph-name="n" unicode="Q" horiz-adv-x="1593" 
d="M1358 -137l149 157l-182 166q188 215 190 539q-2 334 -188 551t-530 221q-340 -4 -529 -221q-188 -217 -190 -551q2 -324 190 -537q189 -219 529 -223q208 2 354 86v0l207 -188v0zM938 541l-150 -160l138 -125q-17 -14 -54 -16q-36 -4 -75 -4q-213 4 -306 153
q-94 148 -92 336q-2 201 92 348q93 150 306 154q217 -4 309 -154q88 -147 88 -348q-2 -225 -90 -336v0l-166 152v0z" />
    <glyph glyph-name="o" unicode="R" horiz-adv-x="1479" 
d="M141 0h322v571h321q121 0 176 -51q54 -53 68 -170q10 -88 18 -182q7 -45 15 -88q6 -43 18 -80h322q-21 31 -31 78q-6 22 -8 47q-6 20 -8 45q-11 104 -15 176q-4 115 -49 213q-47 96 -164 129v4q234 105 232 367q-2 172 -115 286q-113 115 -313 117h-789v-1462zM463 1212
h352q219 2 221 -202q-2 -213 -221 -209h-352v411z" />
    <glyph glyph-name="p" unicode="S" horiz-adv-x="1329" 
d="M49 485q6 -268 191 -393q180 -127 432 -127q299 2 454 135q154 131 154 334q-2 125 -51 205q-51 80 -125 125q-74 47 -144 67q-71 21 -114 29q-266 66 -355 107q-45 22 -63 49q-18 26 -18 65q2 92 73 131q66 35 148 35q119 2 200 -43q80 -49 88 -178h312q-4 254 -176 364
q-170 107 -410 107q-207 0 -371 -109q-172 -110 -176 -333q0 -101 39 -170q37 -70 99 -117q63 -45 141 -76q78 -33 157 -53q170 -37 299 -82q64 -23 101 -59q35 -39 35 -101q0 -55 -27 -88q-29 -37 -72 -57q-43 -21 -92 -29t-94 -8q-133 0 -225 64q-97 63 -99 206h-311z" />
    <glyph glyph-name="q" unicode="T" horiz-adv-x="1251" 
d="M465 0h321v1192h439v270h-1198v-270h438v-1192z" />
    <glyph glyph-name="r" unicode="U" horiz-adv-x="1517" 
d="M1382 1462h-321v-909q0 -162 -66 -238q-67 -79 -237 -79q-94 0 -154 28q-61 29 -94 72q-29 47 -41 102q-12 56 -12 115v909h-322v-909q8 -590 623 -588q614 0 624 588v909z" />
    <glyph glyph-name="s" unicode="V" horiz-adv-x="1290" 
d="M1307 1462h-332l-330 -1028h-4l-326 1028h-331l475 -1462h362z" />
    <glyph glyph-name="t" unicode="W" horiz-adv-x="1933" 
d="M1927 1462h-315l-240 -1007h-4l-250 1007h-301l-254 -995h-4l-231 995h-322l387 -1462h326l243 995h5l247 -995h320z" />
    <glyph glyph-name="u" unicode="X" horiz-adv-x="1366" 
d="M-12 0h362l326 506v0l319 -506h383l-510 764l469 698h-352l-297 -467v0l-287 467h-372l471 -696z" />
    <glyph glyph-name="v" unicode="Y" horiz-adv-x="1366" 
d="M520 0h322v561l542 901h-358l-340 -577v0l-342 577h-362l538 -893v-569z" />
    <glyph glyph-name="w" unicode="Z" horiz-adv-x="1327" 
d="M47 0h1233v270h-805l784 938v254h-1150v-270h722l-784 -938v-254z" />
    <glyph glyph-name="x" unicode="[" horiz-adv-x="682" 
d="M139 -373h541v230h-250v1411h250v229h-541v-1870z" />
    <glyph glyph-name="y" unicode="\" horiz-adv-x="760" 
d="M211 1497h-234l572 -1532h233z" />
    <glyph glyph-name="z" unicode="]" horiz-adv-x="682" 
d="M543 1497h-541v-229h250v-1411h-250v-230h541v1870z" />
    <glyph glyph-name="braceleft" unicode="^" horiz-adv-x="1229" 
d="M125 645h240l249 563v0l250 -563h240l-352 788h-275z" />
    <glyph glyph-name="bar" unicode="_" horiz-adv-x="1024" 
d="M0 -256h1024v102h-1024v-102z" />
    <glyph glyph-name="Uacute" unicode="&#x2018;" horiz-adv-x="569" 
d="M430 1120h-135q-2 78 31 129q28 53 104 78v135q-129 -18 -209 -110q-82 -95 -82 -234v-313h291v315z" />
    <glyph glyph-name="asciitilde" unicode="a" horiz-adv-x="1175" 
d="M770 518v-108q0 -23 -4 -64q-6 -41 -27 -82q-20 -41 -69 -67q-50 -31 -136 -31q-71 0 -122 29q-54 28 -56 106q0 78 54 113q49 32 118 43q70 12 138 22q65 10 104 39v0zM389 733q21 162 193 160q79 0 133 -23q53 -28 55 -120q-2 -84 -104 -103q-48 -10 -109 -16
q-61 -8 -131 -21q-68 -8 -131 -26q-64 -17 -117 -54q-51 -32 -80 -92q-32 -57 -32 -149q2 -162 106 -238q100 -80 254 -80q100 0 192 31q95 31 164 100v0q4 -53 21 -102h295q-19 35 -27 100q-10 64 -10 136v550q0 95 -41 156q-41 59 -111 92q-67 33 -149 45q-82 8 -164 8
q-184 2 -330 -73q-147 -78 -168 -281h291z" />
    <glyph glyph-name="Adieresis" unicode="b" horiz-adv-x="1251" 
d="M111 0h276v135h4q51 -86 141 -125q91 -39 207 -39q168 0 301 135q133 134 138 424q-5 291 -138 426q-133 131 -301 131q-100 0 -188 -36q-88 -39 -146 -121h-4v532h-290v-1462zM887 528q0 -137 -58 -233q-61 -103 -190 -105q-129 2 -186 105q-62 96 -62 233q0 140 62 240
q57 98 186 100q129 -2 190 -100q58 -100 58 -240v0z" />
    <glyph glyph-name="Aring" unicode="c" horiz-adv-x="1175" 
d="M1116 686q-18 203 -160 303q-143 98 -338 98q-260 -2 -399 -161q-141 -158 -141 -412q2 -240 149 -389q142 -152 385 -154q437 4 510 434h-280q-29 -210 -232 -215q-67 0 -112 33q-45 31 -74 80q-57 102 -55 221q-2 123 55 232q57 108 192 112q185 -2 215 -182h285z" />
    <glyph glyph-name="Ccedilla" unicode="d" horiz-adv-x="1251" 
d="M866 0h277v1462h-291v-532h-4q-51 80 -133 119q-84 38 -181 38q-233 -4 -350 -165q-118 -160 -118 -383q0 -226 118 -392q117 -172 357 -176q102 0 186 39t135 125h4v-135zM862 532q0 -135 -51 -235q-55 -105 -199 -107q-133 2 -194 111q-62 100 -62 229q-2 138 58 236
q59 100 198 102q140 -2 197 -102q53 -100 53 -234v0z" />
    <glyph glyph-name="Eacute" unicode="e" horiz-adv-x="1175" 
d="M1114 459q10 125 -18 239q-15 58 -37 107q-25 49 -58 92q-129 186 -401 190q-244 -2 -389 -159q-150 -156 -152 -400q2 -249 148 -401q141 -154 393 -156q367 -4 496 357h-256q-15 -52 -76 -92q-64 -46 -154 -46q-245 -2 -260 269h764zM350 643q0 68 53 145q27 35 76 58
q45 22 113 22q106 0 160 -55q55 -59 71 -170h-473z" />
    <glyph glyph-name="Ntilde" unicode="f" horiz-adv-x="682" 
d="M174 0h291v864h201v195h-201v63q0 68 26 94q27 27 84 27q56 0 107 -6v217q-76 6 -154 8q-178 -2 -264 -90q-90 -88 -90 -231v-82h-174v-195h174v-864z" />
    <glyph glyph-name="Odieresis" unicode="g" horiz-adv-x="1251" 
d="M1128 1059h-276v-142h-4q-105 175 -316 170q-221 -4 -335 -157q-119 -154 -119 -367q0 -223 108 -375q109 -155 344 -157q97 0 185 41q86 41 133 123h4v-140q2 -116 -53 -186q-58 -74 -181 -76q-77 0 -135 33q-59 33 -82 113h-288q8 -88 51 -154q45 -63 110 -106
q142 -80 306 -80q184 2 292 49q109 49 166 121q58 75 76 155q14 78 14 144v991zM604 250q-131 2 -184 104q-53 94 -51 213q0 125 57 211q57 88 178 90q139 -2 197 -96q51 -96 51 -229q0 -117 -62 -201q-61 -90 -186 -92v0z" />
    <glyph glyph-name="Udieresis" unicode="h" horiz-adv-x="1214" 
d="M111 0h290v555q-4 307 226 303q190 0 186 -260v-598h291v651q2 201 -76 318q-84 116 -311 118q-82 0 -166 -43q-86 -43 -143 -133h-7v551h-290v-1462z" />
    <glyph glyph-name="aacute" unicode="i" horiz-adv-x="528" 
d="M119 0h291v1059h-291v-1059zM410 1462h-291v-239h291v239z" />
    <glyph glyph-name="agrave" unicode="j" horiz-adv-x="569" 
d="M-39 -365q47 -6 94 -8q217 0 299 80q76 78 74 240v1112h-291v-1098q0 -55 -33 -76q-32 -18 -79 -18q-37 0 -64 8v-240zM428 1462h-291v-239h291v239z" />
    <glyph glyph-name="acircumflex" unicode="k" horiz-adv-x="1175" 
d="M137 0h291v365l113 108v0l290 -473h353l-445 670l400 389h-344l-367 -381v0v784h-291v-1462z" />
    <glyph glyph-name="adieresis" unicode="l" horiz-adv-x="528" 
d="M119 0h291v1462h-291v-1462z" />
    <glyph glyph-name="atilde" unicode="m" horiz-adv-x="1855" 
d="M119 0h291v614q0 80 24 127q23 49 53 74q31 27 66 35q31 8 53 8q70 0 107 -22q37 -23 51 -62q16 -37 18 -84v-96v-594h291v590q0 53 8 102q8 47 29 84q22 37 61 60q37 22 97 22q63 0 100 -18q37 -21 53 -56q19 -34 23 -82q2 -47 2 -102v-600h291v709q-2 204 -107 294
q-108 84 -280 84q-111 -2 -191 -51q-82 -51 -129 -125v0q-43 94 -125 138q-82 38 -184 38q-207 -2 -324 -172h-4v144h-274v-1059z" />
    <glyph glyph-name="aring" unicode="n" horiz-adv-x="1214" 
d="M111 0h290v555q-4 307 226 303q190 0 186 -260v-598h291v651q2 201 -76 318q-84 116 -311 118q-94 0 -178 -43q-88 -43 -146 -133h-6v148h-276v-1059z" />
    <glyph glyph-name="ccedilla" unicode="o" horiz-adv-x="1251" 
d="M78 528q2 -256 151 -403q144 -152 396 -154q254 2 401 154q145 147 147 403q-2 258 -147 408q-147 149 -401 151q-252 -2 -396 -151q-149 -150 -151 -408v0zM369 528q-2 136 55 236q55 102 201 104q149 -2 204 -104q54 -100 54 -236q0 -131 -54 -231q-55 -105 -204 -107
q-146 2 -201 107q-57 100 -55 231v0z" />
    <glyph glyph-name="eacute" unicode="p" horiz-adv-x="1251" 
d="M111 -373h290v504h4q56 -76 140 -117q82 -43 178 -43q233 4 350 170q115 158 115 377q0 236 -115 399q-119 166 -366 170q-203 0 -316 -163h-4v135h-276v-1432zM645 190q-139 2 -197 105q-59 98 -57 231q-2 135 55 238q58 102 197 104q139 -4 199 -106q55 -105 55 -236
q0 -63 -10 -123q-13 -61 -43 -108q-56 -103 -199 -105v0z" />
    <glyph glyph-name="egrave" unicode="q" horiz-adv-x="1251" 
d="M1143 1059h-277v-135h-4q-51 88 -135 127q-86 36 -186 36q-240 -4 -357 -172q-118 -168 -118 -393q0 -151 45 -256q41 -106 106 -172q70 -63 148 -92q77 -31 149 -31q98 0 190 39q93 39 144 123h4v-506h291v1432zM356 528q0 136 60 236q59 102 198 104q138 -2 193 -108
q55 -105 55 -236q0 -133 -55 -231q-60 -101 -199 -103q-139 2 -196 107q-58 100 -56 231v0z" />
    <glyph glyph-name="ecircumflex" unicode="r" horiz-adv-x="797" 
d="M111 0h290v477q-2 146 64 242q65 96 223 98q59 0 105 -10v270q-31 10 -64 10q-109 -2 -201 -61q-94 -59 -137 -164h-4v197h-276v-1059z" />
    <glyph glyph-name="edieresis" unicode="s" horiz-adv-x="1100" 
d="M59 344q17 -205 162 -289q146 -84 336 -84q188 0 334 80q145 84 149 289q0 74 -26 125q-29 51 -76 84q-47 35 -107 55q-61 21 -127 33q-61 16 -118 31q-60 12 -107 26q-47 15 -76 39q-28 25 -28 62q2 63 57 81q53 17 105 17q81 0 137 -27q53 -33 61 -116h277
q-21 192 -154 268q-133 71 -313 69q-84 0 -166 -14t-148 -53q-65 -37 -104 -105q-43 -67 -43 -168q0 -67 31 -114q28 -49 75 -82q48 -31 109 -51q31 -11 61 -17q29 -8 60 -18q157 -31 246 -64q84 -34 84 -100q-3 -76 -64 -104q-59 -33 -127 -31q-88 0 -154 43
q-63 41 -69 135h-277z" />
    <glyph glyph-name="iacute" unicode="t" horiz-adv-x="721" 
d="M479 1376h-291v-317h-176v-195h176v-624q0 -76 29 -125q25 -52 72 -80q47 -27 108 -35q60 -12 125 -12q92 0 170 10v227q-45 -8 -90 -8q-72 -2 -98 25q-27 26 -25 98v524h213v195h-213v317z" />
    <glyph glyph-name="igrave" unicode="u" horiz-adv-x="1214" 
d="M1104 1059h-291v-555q2 -309 -225 -303q-191 0 -187 260v598h-290v-651q-2 -199 79 -316q82 -119 308 -121q94 0 182 45q84 43 141 131h6v-147h277v1059z" />
    <glyph glyph-name="icircumflex" unicode="v" horiz-adv-x="1065" 
d="M1055 1059h-289l-223 -723h-4l-224 723h-305l363 -1059h323z" />
    <glyph glyph-name="idieresis" unicode="w" horiz-adv-x="1667" 
d="M1655 1059h-299l-195 -717h-4l-180 717h-283l-176 -719h-4l-195 719h-307l336 -1059h301l180 711h4l189 -711h299z" />
    <glyph glyph-name="ntilde" unicode="x" horiz-adv-x="1100" 
d="M0 0h326l221 334v0l221 -334h332l-391 563l348 496h-322l-184 -277v0l-186 277h-332l348 -502z" />
    <glyph glyph-name="oacute" unicode="y" horiz-adv-x="1063" 
d="M1075 1059h-301l-231 -725h-4l-240 725h-311l372 -993q25 -66 0 -125q-24 -62 -100 -74q-86 0 -170 10v-239q90 -11 178 -11q285 -4 365 240z" />
    <glyph glyph-name="ograve" unicode="z" horiz-adv-x="1063" 
d="M45 0h973v219h-590l551 621v219h-893v-219h510l-551 -621v-219z" />
    <glyph glyph-name="ocircumflex" unicode="{" horiz-adv-x="682" 
d="M682 1497h-260q-76 0 -160 -68q-37 -32 -63 -86q-29 -51 -29 -122v-385q0 -50 -18 -84q-19 -37 -52 -58q-28 -20 -59 -30q-35 -13 -59 -13v-178q55 0 118 -37q33 -18 52 -51q18 -33 18 -82v-399q0 -68 29 -121q26 -51 63 -86q41 -33 84 -51q41 -19 76 -19h260v230h-111
q-71 2 -90 51q-22 47 -20 98v328q0 65 -21 108q-22 43 -57 68q-31 27 -66 39q-34 10 -59 10v6q25 2 59 15q35 12 66 34q35 27 57 74q21 45 21 119v311q-2 53 20 100q19 48 90 50h111v229z" />
    <glyph glyph-name="odieresis" unicode="|" horiz-adv-x="457" 
d="M119 -438h219v2048h-219v-2048z" />
    <glyph glyph-name="otilde" unicode="}" horiz-adv-x="682" 
d="M0 -373h260q78 0 162 70q86 68 90 207v399q2 94 70 133q32 23 63 31q31 6 55 6v178q-55 -2 -118 43q-29 21 -48 58q-22 34 -22 84v385q-4 141 -90 208q-84 68 -162 68h-260v-229h111q71 -2 94 -50q16 -47 16 -100v-311q0 -74 25 -119q22 -47 55 -74q35 -22 68 -34
q32 -13 55 -15v-6q-51 0 -123 -49q-33 -25 -55 -68q-25 -43 -25 -108v-328q0 -51 -16 -98q-23 -49 -94 -51h-111v-230z" />
    <glyph glyph-name="uacute" unicode="~" horiz-adv-x="1229" 
d="M1010 704v0q-33 -55 -76 -98q-43 -47 -105 -49q-41 0 -94 25q-55 22 -115 49q-59 28 -114 47q-60 18 -113 18q-100 -2 -162 -55q-61 -53 -94 -121l82 -190v0q25 57 66 102q39 43 106 45q72 0 129 -20q57 -23 107 -52q51 -28 102 -47q51 -20 107 -20q94 0 153 57
q31 27 57 58q25 30 46 61z" />
    <glyph glyph-name="fl" unicode="&#xa1;" horiz-adv-x="569" 
d="M446 1087h-321v-315h321v315zM133 -375h303v393l-78 631h-145l-80 -631v-393z" />
    <glyph glyph-name="questiondown" unicode="&#xa2;" 
d="M532 866v-676v0q-110 41 -155 140q-45 100 -43 211q0 110 47 202q45 93 151 123v0zM532 -235h121v206q191 19 318 133q127 117 145 312h-285q-2 -80 -49 -144q-51 -63 -129 -82v678q72 -6 119 -57t55 -127h285q-12 186 -147 295q-136 106 -312 108v174h-121v-174
q-237 -22 -362 -180q-127 -157 -127 -395q2 -221 135 -371q133 -149 354 -170v-206z" />
    <glyph glyph-name="exclamdown" unicode="&#xa3;" 
d="M180 -35v0q62 45 121 64q59 14 115 14q67 0 114 -12q45 -13 88 -29q43 -14 97 -25q51 -12 127 -12q80 0 163 31q82 31 156 100l-123 207v0q-53 -55 -96 -72q-41 -16 -84 -16q-80 2 -160 25q-80 20 -161 22q-27 0 -58 -6q-33 -10 -82 -41l-4 4q70 53 119 123q47 70 49 164
q0 67 -16 127h215v174h-273q-59 108 -71 164q-15 55 -13 98q0 88 58 137q53 51 143 51q80 0 125 -28q43 -31 64 -76q20 -43 28 -88q6 -47 6 -80h277q-15 508 -498 512q-258 -2 -391 -121t-133 -287q0 -90 33 -165q26 -76 59 -117h-131v-174h203q37 -68 39 -137
q-2 -111 -72 -197t-160 -143z" />
    <glyph glyph-name="macron" unicode="&#x2215;" horiz-adv-x="342" 
d="M-340 -45h178l844 1524h-174z" />
    <glyph glyph-name="quotedblleft" unicode="&#xa5;" 
d="M735 0v283h324v194h-324v94l31 60h293v194h-195l318 637h-332l-264 -637v0l-271 637h-333l315 -637h-195v-194h293l29 -60v-94h-322v-194h322v-283h311z" />
    <glyph glyph-name="quotesinglbase" unicode="&#x192;" 
d="M-10 -342q80 -6 151 -6q221 0 310 100q88 99 118 303l115 635h205l33 195h-201l51 266q10 67 45 98q33 29 111 29q39 0 82 -14l36 219q-75 14 -153 14q-197 0 -291 -78q-98 -84 -131 -274l-49 -260h-186l-37 -195h188l-129 -674q-10 -71 -39 -108q-31 -37 -108 -37
q-41 0 -82 6z" />
    <glyph glyph-name="logicalnot" unicode="&#xa7;" 
d="M772 588q39 -19 66 -49q26 -33 26 -80q0 -35 -26 -72q-13 -16 -29 -27q-19 -14 -39 -14q-39 0 -61 14l-369 201q-66 39 -66 100q0 50 31 91q29 43 74 47q31 -2 55 -21zM1012 1102q-2 192 -125 295q-121 100 -307 100q-164 0 -291 -90q-133 -88 -137 -264q0 -121 88 -207
q-217 -76 -220 -299q3 -148 113 -238q109 -90 246 -151q141 -60 244 -119q49 -29 77 -66q27 -36 27 -81q-2 -68 -43 -101q-41 -35 -109 -35q-188 0 -200 179h-254q4 -207 135 -301q127 -97 326 -97q163 0 297 86q135 86 139 258q0 150 -113 242q207 82 213 299
q-2 145 -104 231q-103 86 -238 146q-131 59 -235 119q-52 30 -80 63q-33 33 -33 76q0 61 51 96q47 35 105 35q84 -2 129 -49t45 -127h254z" />
    <glyph glyph-name="breve" unicode="&#xa4;" 
d="M41 305l115 -115v0l114 119v0q115 -100 301 -100q181 0 293 102v0l117 -119v0l113 113l-113 115q94 123 94 299q0 88 -22 166q-25 75 -70 127l115 112l-125 125v0l-119 -117v0q-104 91 -281 93q-184 -2 -299 -95v0l-116 115v0l-117 -117l117 -118q-49 -52 -74 -129
q-25 -78 -25 -166q0 -174 99 -291zM573 1005q125 -2 187 -88q61 -86 61 -198q0 -115 -61 -199q-62 -90 -189 -92q-125 2 -190 88q-68 84 -68 199q0 118 68 202q63 86 192 88v0z" />
    <glyph glyph-name="D" unicode="'" horiz-adv-x="569" 
d="M176 805h219v657h-219v-657z" />
    <glyph glyph-name="apple" unicode="&#x201c;" horiz-adv-x="948" 
d="M838 1120h-136q-2 78 31 129q29 53 105 78v135q-129 -18 -209 -110q-82 -95 -82 -234v-313h291v315zM401 1120h-135q-2 78 31 129q29 53 104 78v135q-129 -18 -209 -110q-81 -95 -81 -234v-313h290v315z" />
    <glyph glyph-name="Acircumflex" unicode="&#xab;" horiz-adv-x="909" 
d="M823 164v0v246l-184 147l184 145v246v0l-321 -252v-276zM408 164v0v246l-185 147l185 145v246v0l-322 -252v-276z" />
    <glyph glyph-name="dotaccent" unicode="&#x2039;" horiz-adv-x="494" 
d="M408 164v0v246l-185 147l185 145v246v0l-322 -252v-276z" />
    <glyph glyph-name="ring" unicode="&#x203a;" horiz-adv-x="494" 
d="M86 948v0v-246l184 -145l-184 -147v-246v0l322 256v276z" />
    <glyph glyph-name="cedilla" unicode="&#xf001;" horiz-adv-x="1251" 
d="M1132 1462h-290v-239h290v239zM842 0h290v1059h-290v-1059zM174 0h291v864h201v195h-201v63q0 68 26 94q27 27 84 27q56 0 107 -6v217q-76 6 -154 8q-178 -2 -264 -90q-90 -88 -90 -231v-82h-174v-195h174v-864z" />
    <glyph glyph-name="hungarumlaut" unicode="&#xf002;" horiz-adv-x="1251" 
d="M842 0h290v1462h-290v-1462zM174 0h291v864h201v195h-201v63q0 68 26 94q27 27 84 27q56 0 107 -6v217q-76 6 -154 8q-178 -2 -264 -90q-90 -88 -90 -231v-82h-174v-195h174v-864z" />
    <glyph glyph-name="Oacute" unicode="&#x2013;" horiz-adv-x="1024" 
d="M0 434h1024v250h-1024v-250z" />
    <glyph glyph-name="ae" unicode="&#x2020;" 
d="M430 -340h277v1159h382v240h-382v403h-277v-403h-381v-240h381v-1159z" />
    <glyph glyph-name="ogonek" unicode="&#x2021;" 
d="M430 -340h277v395h382v240h-382v524h382v240h-382v403h-277v-403h-381v-240h381v-524h-381v-240h381v-395z" />
    <glyph glyph-name="caron" unicode="&#x2219;" horiz-adv-x="569" 
d="M113 588q0 -72 53 -121q51 -51 123 -51q69 2 121 55q47 49 49 117q-2 73 -49 125q-52 47 -123 49q-72 -2 -121 -49q-53 -49 -53 -125v0z" />
    <glyph glyph-name="florin" unicode="&#xb6;" horiz-adv-x="1270" 
d="M453 -340h208v1638h226v-1638h209v1802h-600q-217 2 -351 -78q-139 -82 -141 -295q4 -350 449 -358v-1071z" />
    <glyph glyph-name="radical" unicode="&#x2022;" horiz-adv-x="1026" 
d="M147 731q2 -156 109 -258q102 -106 256 -108q158 2 260 108q104 102 107 258q-3 158 -107 260q-102 103 -260 105q-154 -2 -256 -105q-107 -102 -109 -260v0z" />
    <glyph glyph-name="Lslash" unicode="&#x201a;" horiz-adv-x="569" 
d="M139 0h135q0 -74 -26 -127q-29 -51 -109 -80v-135q131 21 213 115q80 92 78 229v313h-291v-315z" />
    <glyph glyph-name="lslash" unicode="&#x201e;" horiz-adv-x="948" 
d="M547 0h135q0 -74 -27 -127q-28 -51 -108 -80v-135q131 21 213 115q80 92 78 229v313h-291v-315zM111 0h135q0 -74 -27 -127q-29 -51 -108 -80v-135q131 21 213 115q79 92 77 229v313h-290v-315z" />
    <glyph glyph-name="Ograve" unicode="&#x201d;" horiz-adv-x="948" 
d="M547 1147h135q0 -74 -27 -127q-28 -51 -108 -80v-135q131 20 213 114q80 93 78 230v313h-291v-315zM111 1147h135q0 -74 -27 -127q-29 -51 -108 -80v-135q131 20 213 114q79 93 77 230v313h-290v-315z" />
    <glyph glyph-name="Ecircumflex" unicode="&#xbb;" horiz-adv-x="909" 
d="M502 948v0v-246l184 -145l-184 -147v-246v0l321 256v276zM86 948v0v-246l184 -145l-184 -147v-246v0l322 256v276z" />
    <glyph glyph-name="Aacute" unicode="&#x2026;" horiz-adv-x="2048" 
d="M180 0h322v315h-322v-315zM862 0h322v315h-322v-315zM1544 0h322v315h-322v-315z" />
    <glyph glyph-name="Scaron" unicode="&#x2030;" horiz-adv-x="2349" 
d="M1085 352q-2 64 19 127q18 62 100 64q80 -2 98 -68q15 -67 13 -151q2 -78 -13 -146q-16 -72 -102 -74q-78 2 -96 82q-21 76 -19 166v0zM1610 317q0 -155 79 -247q78 -97 220 -99q159 2 231 103q68 96 68 245q0 156 -64 254q-67 101 -233 103q-158 -2 -230 -107
q-71 -102 -71 -252v0zM1794 352q-2 64 18 127q19 62 101 64q80 -2 98 -68q14 -67 12 -151q2 -78 -12 -146q-16 -72 -102 -74q-78 2 -97 82q-20 76 -18 166v0zM141 1104q0 -156 80 -248q78 -96 219 -98q160 2 232 102q67 96 67 246q0 155 -63 254q-68 100 -234 102
q-157 -2 -229 -106q-72 -103 -72 -252v0zM326 1139q-2 63 18 127q18 61 100 63q80 -2 99 -68q14 -67 12 -151q2 -78 -12 -145q-17 -72 -103 -74q-78 2 -96 82q-20 76 -18 166v0zM307 -45h178l844 1524h-174zM901 317q0 -155 80 -247q78 -97 219 -99q160 2 231 103
q68 96 68 245q0 156 -63 254q-68 101 -234 103q-158 -2 -229 -107q-72 -102 -72 -252v0z" />
    <glyph glyph-name="fi" unicode="&#xbf;" 
d="M768 104q0 -110 -49 -186q-51 -78 -158 -80q-172 0 -174 185q0 81 47 131q43 47 103 90q32 24 63 55q29 29 53 66q51 71 62 200v92h-277v-77q-14 -86 -73 -140q-58 -53 -127 -100q-31 -23 -62 -53q-31 -31 -55 -70q-53 -76 -55 -223q0 -60 26 -125q27 -68 84 -131
q62 -59 158 -98q98 -39 241 -41q226 2 357 143q131 139 137 362h-301zM743 1087h-321v-315h321v315z" />
    <glyph glyph-name="braceright" unicode="`" horiz-adv-x="530" 
d="M217 1190h203l-197 291h-321z" />
    <glyph glyph-name="ellipsis" unicode="&#xb4;" horiz-adv-x="530" 
d="M629 1481h-322l-196 -291h202z" />
    <glyph glyph-name="threequarters" unicode="&#x2c6;" horiz-adv-x="530" 
d="M-94 1190h221l131 166v0l127 -166h240l-226 291h-266z" />
    <glyph glyph-name="glyph130" unicode="&#x2dc;" horiz-adv-x="530" 
d="M500 1462q4 -69 -86 -72q-70 3 -135 37q-31 15 -62 25q-33 10 -70 10q-67 0 -110 -20q-45 -23 -74 -60q-26 -35 -45 -78q-16 -45 -29 -92h125q9 41 29 64q18 22 57 22q70 -2 144 -34q39 -13 82 -23q41 -12 86 -12q63 0 102 24q39 23 63 58q25 36 39 77q17 39 25 74h-141z
" />
    <glyph glyph-name="Gbreve" unicode="&#xaf;" horiz-adv-x="530" 
d="M-117 1261h764v154h-764v-154z" />
    <glyph glyph-name="gbreve" unicode="&#x2d8;" horiz-adv-x="530" 
d="M-80 1489q29 -299 326 -299q313 -4 364 299h-129q-41 -150 -225 -146q-61 0 -125 33q-61 33 -78 113h-133z" />
    <glyph glyph-name="Idotaccent" unicode="&#x2d9;" horiz-adv-x="530" 
d="M127 1223h276v239h-276v-239z" />
    <glyph glyph-name="nonbreakingspace" unicode="&#xa8;" horiz-adv-x="530" 
d="M338 1223h276v239h-276v-239zM-84 1223h276v239h-276v-239z" />
    <glyph glyph-name="Scedilla" unicode="&#x2da;" horiz-adv-x="530" 
d="M135 1343q0 64 37 105q35 39 92 39q60 0 96 -39q35 -41 35 -105q0 -59 -35 -100q-36 -43 -96 -43q-57 0 -92 43q-37 41 -37 100v0zM14 1343q0 -104 76 -174q70 -75 174 -75q107 0 180 75q70 70 72 174q-2 109 -72 179q-73 69 -180 71q-104 -2 -174 -71q-76 -70 -76 -179
v0z" />
    <glyph glyph-name="scedilla" unicode="&#xb8;" horiz-adv-x="530" 
d="M25 -401q55 -19 110 -31q51 -12 144 -14q96 0 165 43q72 45 74 161q-2 78 -57 111q-58 33 -131 33q-51 0 -70 -11h-4l80 113h-100l-121 -174l43 -49q37 14 82 14q77 4 82 -65q-3 -70 -82 -70q-52 2 -95 14q-43 11 -77 23z" />
    <glyph glyph-name="cacute" unicode="&#x2db;" horiz-adv-x="530" 
d="M414 -262v0q-27 -35 -56 -47q-30 -15 -63 -15q-31 3 -53 21q-27 18 -27 49q-2 51 37 113q37 59 133 147h-133q-86 -49 -131 -92q-49 -43 -70 -78q-20 -35 -26 -59q-7 -25 -7 -39q0 -64 29 -100q27 -37 64 -56q38 -16 73 -22t54 -6q71 0 143 32q70 31 131 107z" />
    <glyph glyph-name="Ccaron" unicode="&#x2c7;" horiz-adv-x="530" 
d="M625 1481h-226l-133 -166v0l-131 166h-229l227 -291h266z" />
    <glyph glyph-name="Ocircumflex" unicode="&#x2014;" horiz-adv-x="2048" 
d="M266 434h1516v250h-1516v-250z" />
    <glyph glyph-name="Atilde" unicode="&#xc6;" horiz-adv-x="2009" 
d="M856 1192h70v-627h-353zM-23 0h342l148 326h459v-326h1007v270h-696v359h639v250h-639v313h680v270h-1241z" />
    <glyph glyph-name="Ydieresis" unicode="&#xaa;" horiz-adv-x="704" 
d="M471 1055q0 -23 -2 -47q-6 -29 -21 -54q-28 -51 -126 -53q-29 0 -60 16q-33 19 -33 60q0 39 33 57q29 17 72 25q33 6 76 14q38 6 61 23v-41zM250 1239q4 25 14 43t23 27q28 20 63 20q53 0 88 -12q35 -17 35 -68q-2 -45 -61 -55q-64 -12 -158 -23q-90 -6 -158 -47
q-73 -41 -76 -151q3 -107 68 -156q64 -49 162 -49q57 0 117 18q59 19 104 64q2 -31 14 -64h207q-24 47 -24 154v340q0 57 -27 94q-29 37 -72 55q-94 35 -209 33q-116 0 -206 -45q-43 -22 -72 -65q-31 -45 -41 -113h209z" />
    <glyph glyph-name="glyph142" unicode="&#x141;" horiz-adv-x="1214" 
d="M141 438v-438h1034v270h-712v394l432 303v229v0l-432 -303v0v569h-322v-794l-164 -115v-229v0l164 114v0z" />
    <glyph glyph-name="Otilde" unicode="&#xd8;" horiz-adv-x="1593" 
d="M70 20l100 -88v0l170 189v0q172 -152 457 -156q344 4 530 223q186 213 188 537q-2 307 -163 516l172 190l-103 91v0l-164 -183v0q-176 156 -460 158q-340 -4 -529 -221q-188 -217 -190 -551q0 -148 43 -277q43 -131 125 -233zM457 448v0q-60 129 -58 277q-2 201 92 348
q93 150 306 154q174 -2 266 -105zM1139 1003v0q55 -129 55 -278q0 -188 -88 -336q-92 -149 -309 -153q-170 2 -263 100z" />
    <glyph glyph-name="Idieresis" unicode="&#x152;" horiz-adv-x="2238" 
d="M1114 0h1038v270h-739v359h664v250h-664v313h725v270h-1024v-104h-4q-61 75 -154 108q-94 31 -192 31q-326 -6 -504 -233q-182 -226 -182 -541q0 -313 180 -531q174 -221 500 -227q98 2 192 39t160 107h4v-111zM1102 569q-2 -149 -86 -239q-86 -94 -236 -94
q-203 4 -293 157q-90 148 -88 334q-2 192 88 342q90 154 299 158q142 -2 228 -84q86 -84 88 -226v-348z" />
    <glyph glyph-name="fraction" unicode="&#xba;" horiz-adv-x="752" 
d="M25 1114q8 -340 350 -346q344 6 352 346q-8 342 -352 348q-342 -6 -350 -348v0zM244 1114q0 74 32 133q31 60 99 62q71 -2 104 -62q29 -59 29 -133q0 -70 -29 -129q-33 -61 -104 -63q-68 2 -99 63q-32 59 -32 129v0z" />
    <glyph glyph-name="guilsinglleft" unicode="&#xe6;" horiz-adv-x="1857" 
d="M788 516v-131q0 -57 -20 -98q-23 -39 -57 -68q-35 -27 -78 -39q-43 -14 -84 -14q-68 -2 -121 31q-57 28 -59 106q2 76 55 107q49 30 115 41q69 12 139 22q69 10 110 43v0zM1798 459q0 258 -109 440q-114 184 -378 188q-242 0 -355 -143v0q-57 82 -155 115q-99 28 -195 28
q-192 0 -338 -77q-145 -84 -162 -281h291q6 90 64 129q55 35 139 35q74 0 131 -25q55 -28 57 -110q0 -76 -84 -99q-86 -26 -272 -49q-65 -8 -127 -26q-31 -9 -59 -21q-31 -14 -56 -33q-51 -32 -79 -92q-33 -59 -33 -151q2 -172 123 -244q116 -72 272 -72q123 0 240 43
q116 43 192 138v0q35 -46 80 -80q43 -37 96 -58q105 -43 219 -43q177 2 310 97q133 94 178 264h-283q-24 -164 -211 -166q-57 0 -104 29q-49 24 -82 67q-68 88 -66 197h756zM1042 643q4 102 66 176q59 72 172 74q110 -2 170 -74q59 -74 57 -176h-465z" />
    <glyph glyph-name="onequarter" unicode="&#x131;" horiz-adv-x="528" 
d="M119 0h291v1059h-291v-1059z" />
    <glyph glyph-name="glyph148" unicode="&#x142;" horiz-adv-x="528" 
d="M119 586v-586h291v815l137 109v208v0l-137 -108v0v438h-291v-667l-137 -109v-209v0l137 109v0z" />
    <glyph glyph-name="guilsinglright" unicode="&#xf8;" horiz-adv-x="1251" 
d="M399 352v0q-32 80 -30 176q-2 136 55 236q55 102 201 104q112 -2 170 -65zM850 715v0q33 -86 33 -187q0 -131 -54 -231q-55 -105 -204 -107q-117 0 -174 70zM90 2l76 -65v0l121 137v0q139 -103 338 -103q254 2 401 154q145 147 147 403q-2 248 -141 396l111 125l-76 65v0
l-109 -125v0q-135 96 -333 98q-252 -2 -396 -151q-149 -150 -151 -408q0 -239 135 -387z" />
    <glyph glyph-name="Igrave" unicode="&#x153;" horiz-adv-x="1896" 
d="M1081 643q6 98 64 162q59 61 166 63q229 -6 235 -225h-465zM594 190q-64 0 -107 33q-43 31 -69 80q-51 107 -49 221q-2 129 51 234q51 106 180 110q74 0 119 -30q45 -31 69 -82q41 -109 39 -224q0 -57 -8 -116q-8 -60 -33 -111q-24 -49 -69 -82q-49 -33 -123 -33v0z
M1837 459q2 262 -117 442q-123 182 -403 186q-99 0 -197 -41q-98 -43 -158 -127v0q-59 93 -157 132q-101 36 -207 36q-240 -2 -377 -157q-143 -156 -143 -396q0 -231 127 -393q125 -166 370 -170q111 0 215 43q103 43 160 138v0q64 -97 168 -140q103 -41 215 -41
q377 6 496 365h-283q-55 -146 -213 -146q-127 2 -188 80q-64 74 -64 189h756z" />
    <glyph glyph-name="approxequal" unicode="&#xdf;" horiz-adv-x="1251" 
d="M115 0h290v1057q0 94 50 147q47 53 133 53q53 2 123 -24q69 -33 73 -158q-2 -94 -63 -137q-66 -45 -152 -45q-20 0 -45 4v-193q37 5 72 5q129 -2 190 -68q60 -70 60 -182q-2 -105 -66 -174q-65 -72 -172 -74q-43 0 -84 10v-237q84 -13 168 -13q199 4 322 146
q121 135 123 331q0 136 -64 236q-68 100 -203 131v4q88 31 140 109q51 80 51 176q-4 203 -139 299q-136 94 -326 94q-150 -2 -244 -43q-98 -45 -149 -117q-51 -71 -68 -157q-20 -86 -20 -175v-1005z" />
    <glyph glyph-name="Ugrave" unicode="&#xf7;" horiz-adv-x="1229" 
d="M98 408h1034v219h-1034v-219zM442 942q0 -72 54 -121q51 -51 122 -51q70 2 121 55q47 49 49 117q-2 74 -49 125q-51 47 -123 49q-71 -2 -120 -49q-54 -49 -54 -125v0zM442 92q0 -72 54 -121q51 -51 122 -53q70 2 121 55q47 52 49 119q-2 72 -49 123q-51 47 -123 49
q-71 -2 -120 -49q-54 -47 -54 -123v0z" />
    <glyph glyph-name="glyph153" unicode="&#xbe;" horiz-adv-x="1821" 
d="M489 -45h179l843 1524h-174zM371 950h71q39 -2 70 -14q31 -8 53 -33q19 -24 19 -70q-2 -57 -43 -92q-43 -37 -107 -37q-76 0 -115 52q-38 45 -43 112h-196q10 -325 358 -327q148 0 250 75q102 74 105 222q0 73 -43 127q-46 51 -123 65v4q67 21 102 68q33 47 33 108
q-4 127 -101 191q-96 61 -225 61q-313 -6 -332 -311h197q0 63 37 104q35 41 100 43q51 0 90 -28q35 -27 37 -80q-2 -68 -67 -84q-64 -14 -127 -12v-144zM1452 0h197v182h116v164h-116v514h-205l-385 -487v-191h393v-182zM1452 346h-238l234 295h4v-295z" />
    <glyph glyph-name="glyph154" unicode="&#xbc;" horiz-adv-x="1827" 
d="M311 -45h178l844 1524h-174zM483 1444h-172q-14 -97 -88 -135q-74 -39 -174 -35v-154h225v-561h209v885zM1411 0h197v182h116v164h-116v514h-205l-385 -487v-191h393v-182zM1411 346h-238l234 295h4v-295z" />
    <glyph glyph-name="uni00B9" unicode="&#xb9;" horiz-adv-x="803" 
d="M592 1444h-172q-15 -97 -88 -135q-74 -39 -174 -35v-154h225v-561h209v885z" />
    <glyph glyph-name="multiply" unicode="&#xd7;" horiz-adv-x="1229" 
d="M287 35v0l329 330v0l328 -330v0l156 155l-330 328l330 328l-156 155v0l-328 -327v0l-325 327v0l-156 -155l326 -328l-330 -328z" />
    <glyph glyph-name="Delta" unicode="&#xae;" horiz-adv-x="1638" 
d="M33 733q4 -354 239 -557q226 -209 547 -211q324 2 551 211q229 203 236 557q-7 354 -236 557q-227 205 -551 207q-321 -2 -547 -207q-235 -203 -239 -557v0zM242 733q2 266 170 432q161 166 407 168q246 -2 410 -168t168 -432q-4 -266 -168 -432q-164 -170 -410 -172
q-246 2 -407 172q-168 166 -170 432v0zM514 305h170v367h106l209 -367h179l-230 375q98 8 162 61q61 52 63 168q-4 260 -335 254h-324v-858zM684 1030h143q64 0 119 -16q55 -23 57 -90q0 -74 -45 -97q-47 -24 -122 -22h-152v225z" />
    <glyph glyph-name="glyph158" unicode="&#xde;" horiz-adv-x="1366" 
d="M141 0h322v326h338q270 4 391 147q115 137 115 322q0 186 -115 325q-121 139 -391 144h-338v198h-322v-1462zM463 1014h250q118 2 198 -39q82 -43 84 -180q-2 -136 -84 -179q-37 -24 -88 -32q-51 -9 -110 -9h-250v439z" />
    <glyph glyph-name="glyph159" unicode="&#xa6;" horiz-adv-x="457" 
d="M119 -182h219v512h-219v-512zM338 1354h-219v-512h219v512z" />
    <glyph glyph-name="glyph160" unicode="&#xd0;" horiz-adv-x="1517" 
d="M141 0h631q334 2 500 213q164 203 164 526q-3 365 -189 545q-184 178 -475 178h-631v-588h-135v-237h135v-637zM463 1192h229q238 -2 332 -131q92 -129 90 -352q0 -119 -29 -203q-28 -86 -82 -137q-49 -52 -114 -74q-68 -25 -139 -25h-287v365h327v239h-327v318z" />
    <glyph glyph-name="glyph161" unicode="&#xbd;" horiz-adv-x="1821" 
d="M311 -45h178l844 1524h-174zM483 1444h-172q-14 -97 -88 -135q-74 -39 -174 -35v-154h225v-561h209v885zM1251 547q-4 65 31 129q33 61 117 63q59 0 92 -35q33 -34 33 -92q-4 -78 -68 -125q-29 -24 -63 -43q-35 -20 -66 -43q-121 -67 -201 -155t-86 -246h684v164h-428
q54 69 129 115q72 45 142 86q71 45 118 108q45 59 47 154q-2 139 -94 209q-92 67 -225 67q-186 -2 -278 -96q-93 -98 -93 -260h209z" />
    <glyph glyph-name="glyph162" unicode="&#x2212;" horiz-adv-x="1229" 
d="M98 408h1034v219h-1034v-219z" />
    <glyph glyph-name="acute" unicode="&#xe7;" horiz-adv-x="1175" 
d="M1116 686q-18 203 -160 303q-143 98 -338 98q-260 -2 -399 -161q-141 -158 -141 -412q2 -221 129 -367q123 -145 334 -170l-103 -147l43 -49q37 14 82 14q78 4 82 -65q-2 -70 -82 -70q-51 2 -94 14q-43 11 -78 23l-43 -98q55 -19 111 -31q51 -12 143 -14q96 0 166 43
q72 45 74 161q-2 78 -58 111q-57 33 -131 33q-51 0 -69 -11h-4l57 82q416 19 485 432h-280q-29 -210 -232 -215q-67 0 -112 33q-45 31 -74 80q-57 102 -55 221q-2 123 55 232q57 108 192 112q185 -2 215 -182h285z" />
    <glyph glyph-name="glyph164" unicode="&#xf0;" horiz-adv-x="1251" 
d="M625 190q-146 2 -201 107q-57 100 -55 231q-2 119 57 213q57 97 197 101q139 -2 202 -99q58 -94 58 -215q0 -131 -54 -231q-55 -105 -204 -107v0zM272 1214l119 -114v0l229 114v0q56 -43 113 -108q57 -66 96 -152h-4q-71 49 -143 66q-72 16 -133 16q-244 -6 -357 -170
q-114 -159 -114 -360q2 -238 151 -383q144 -150 396 -152q254 4 401 170q145 162 147 418q-2 463 -337 764l233 117l-107 120v0l-251 -127v0q-93 74 -203 136v0l-189 -142q86 -41 172 -102z" />
    <glyph glyph-name="oe" unicode="&#xb1;" horiz-adv-x="1229" 
d="M725 1036h-219v-268h-408v-219h408v-268h219v268h407v219h-407v268zM98 0h1034v219h-1034v-219z" />
    <glyph glyph-name="dagger" unicode="&#xc7;" horiz-adv-x="1517" 
d="M1427 971q-32 256 -209 391q-174 133 -421 135q-340 -4 -529 -221q-188 -217 -190 -551q0 -301 168 -508q162 -209 461 -246l-99 -141l43 -49q37 14 82 14q78 4 82 -65q-2 -70 -82 -70q-51 2 -94 14q-43 11 -78 23l-43 -98q55 -19 111 -31q51 -12 143 -14q96 0 166 43
q72 45 74 161q-2 78 -58 111q-57 33 -131 33q-51 0 -69 -11h-4l53 74q561 31 637 598h-312q-18 -147 -100 -235q-84 -90 -231 -92q-213 4 -306 153q-94 148 -92 336q-2 201 92 348q93 150 306 154q122 -2 213 -72q88 -72 106 -184h311z" />
    <glyph glyph-name="glyph167" unicode="&#xfe;" horiz-adv-x="1251" 
d="M111 -373h290v504h4q56 -76 140 -117q82 -43 178 -43q233 4 350 170q115 158 115 377q0 236 -115 399q-119 166 -366 170q-89 0 -166 -38q-82 -39 -136 -125h-4v538h-290v-1835zM897 526q0 -63 -10 -123q-13 -61 -43 -108q-56 -103 -199 -105q-139 2 -197 105
q-59 98 -57 231q-2 135 55 238q58 102 197 104q139 -4 199 -106q55 -105 55 -236v0z" />
    <glyph glyph-name="guillemotleft" unicode="&#xa9;" horiz-adv-x="1638" 
d="M33 731q4 -350 239 -555q226 -209 547 -211q324 2 551 211q229 205 236 555q-7 354 -236 559q-227 205 -551 207q-321 -2 -547 -207q-235 -205 -239 -559v0zM242 731q2 270 170 434q161 166 407 168q246 -2 410 -168q164 -164 168 -434q-4 -266 -168 -430
q-164 -170 -410 -172q-246 2 -407 172q-168 164 -170 430v0zM1055 604q-11 -74 -64 -115q-55 -45 -143 -45q-113 2 -176 88q-68 84 -68 207q0 129 64 209q59 80 176 82q82 0 139 -39q55 -41 72 -115h159q-24 158 -125 238q-100 80 -245 80q-205 -2 -320 -129
q-116 -127 -116 -330q2 -194 122 -321q117 -131 318 -133q141 0 244 86q102 84 129 237h-166z" />
    <glyph glyph-name="daggerdbl" unicode="&#xac;" horiz-adv-x="1229" 
d="M1130 831h-1032v-219h813v-409h219v628z" />
    <glyph glyph-name="uni00B2" unicode="&#xb2;" horiz-adv-x="803" 
d="M266 1106q-4 65 31 129q33 61 117 63q59 0 92 -34q33 -35 33 -93q-5 -77 -68 -125q-29 -24 -63 -43q-35 -20 -66 -43q-121 -67 -201 -155t-86 -246h684v164h-428q54 70 129 115q72 45 142 86q71 45 118 108q45 60 47 154q-2 139 -94 209q-92 67 -225 67q-186 -2 -279 -96
q-92 -98 -92 -260h209z" />
    <glyph glyph-name="uni00B3" unicode="&#xb3;" horiz-adv-x="803" 
d="M336 950h72q38 -2 69 -14q31 -8 53 -33q19 -24 19 -70q-2 -57 -43 -92q-43 -37 -107 -37q-75 0 -114 52q-39 45 -43 112h-197q10 -325 358 -327q148 0 250 75q103 74 105 222q0 73 -43 127q-45 51 -123 65v4q67 21 102 68q33 47 33 108q-4 127 -100 191q-97 61 -226 61
q-313 -6 -331 -311h196q0 63 37 104q35 41 100 43q52 0 91 -28q34 -27 36 -80q-2 -68 -67 -84q-64 -14 -127 -12v-144z" />
    <glyph glyph-name="guillemotright" unicode="&#x2122;" horiz-adv-x="2048" 
d="M1900 1462h-276l-211 -555v0l-211 555h-278v-844h196v598h4l217 -598h142l217 598h4v-598h196v844zM815 1462h-688v-164h240v-680h208v680h240v164z" />
    <glyph glyph-name="oslash" unicode="&#xb0;" horiz-adv-x="819" 
d="M106 1159q3 -129 91 -213q84 -88 213 -90q129 2 215 90q86 84 88 213q-2 129 -88 215t-215 88q-129 -2 -213 -88q-88 -86 -91 -215v0zM240 1159q0 76 53 127q49 51 117 53q69 -2 118 -53t52 -127q-3 -76 -52 -127q-49 -53 -118 -53q-68 0 -117 53q-53 51 -53 127v0z" />
    <glyph glyph-name="quotedblright" unicode="&#xb5;" horiz-adv-x="1214" 
d="M1104 1059h-291v-555q2 -309 -225 -303q-191 0 -187 260v598h-290v-1432h290v393q35 -47 154 -49q53 0 131 45q78 43 135 131h6v-147h277v1059z" />
    <glyph glyph-name="circumflex" unicode="&#xff;" horiz-adv-x="1063" 
d="M1075 1059h-301l-231 -725h-4l-240 725h-311l372 -993q25 -66 0 -125q-24 -62 -100 -74q-86 0 -170 10v-239q90 -11 178 -11q285 -4 365 240zM612 1223h276v239h-276v-239zM190 1223h276v239h-276v-239z" />
    <glyph glyph-name="glyph176" unicode="&#xfd;" horiz-adv-x="1063" 
d="M1075 1059h-301l-231 -725h-4l-240 725h-311l372 -993q25 -66 0 -125q-24 -62 -100 -74q-86 0 -170 10v-239q90 -11 178 -11q285 -4 365 240zM907 1481h-322l-196 -291h202z" />
    <glyph glyph-name="ordfeminine" unicode="&#xf9;" horiz-adv-x="1214" 
d="M1104 1059h-291v-555q2 -309 -225 -303q-191 0 -187 260v598h-290v-651q-2 -199 79 -316q82 -119 308 -121q94 0 182 45q84 43 141 131h6v-147h277v1059zM561 1190h203l-197 291h-321z" />
    <glyph glyph-name="Omega" unicode="&#xfc;" horiz-adv-x="1214" 
d="M1104 1059h-291v-555q2 -309 -225 -303q-191 0 -187 260v598h-290v-651q-2 -199 79 -316q82 -119 308 -121q94 0 182 45q84 43 141 131h6v-147h277v1059zM682 1223h276v239h-276v-239zM260 1223h276v239h-276v-239z" />
    <glyph glyph-name="ordmasculine" unicode="&#xfb;" horiz-adv-x="1214" 
d="M1104 1059h-291v-555q2 -309 -225 -303q-191 0 -187 260v598h-290v-651q-2 -199 79 -316q82 -119 308 -121q94 0 182 45q84 43 141 131h6v-147h277v1059zM250 1190h221l131 166v0l127 -166h240l-226 291h-266z" />
    <glyph glyph-name="integral" unicode="&#xfa;" horiz-adv-x="1214" 
d="M1104 1059h-291v-555q2 -309 -225 -303q-191 0 -187 260v598h-290v-651q-2 -199 79 -316q82 -119 308 -121q94 0 182 45q84 43 141 131h6v-147h277v1059zM980 1481h-322l-196 -291h202z" />
    <glyph glyph-name="glyph181" unicode="&#x161;" horiz-adv-x="1100" 
d="M59 344q17 -205 162 -289q146 -84 336 -84q188 0 334 80q145 84 149 289q0 74 -26 125q-29 51 -76 84q-47 35 -107 55q-61 21 -127 33q-61 16 -118 31q-60 12 -107 26q-47 15 -76 39q-28 25 -28 62q2 63 57 81q53 17 105 17q81 0 137 -27q53 -33 61 -116h277
q-21 192 -154 268q-133 71 -313 69q-84 0 -166 -14t-148 -53q-65 -37 -104 -105q-43 -67 -43 -168q0 -67 31 -114q28 -49 75 -82q48 -31 109 -51q31 -11 61 -17q29 -8 60 -18q157 -31 246 -64q84 -34 84 -100q-3 -76 -64 -104q-59 -33 -127 -31q-88 0 -154 43
q-63 41 -69 135h-277zM913 1481h-226l-133 -166v0l-131 166h-229l227 -291h266z" />
    <glyph glyph-name="pi" unicode="&#xf5;" horiz-adv-x="1251" 
d="M78 528q2 -256 151 -403q144 -152 396 -154q254 2 401 154q145 147 147 403q-2 258 -147 408q-147 149 -401 151q-252 -2 -396 -151q-149 -150 -151 -408v0zM369 528q-2 136 55 236q55 102 201 104q149 -2 204 -104q54 -100 54 -236q0 -131 -54 -231q-55 -105 -204 -107
q-146 2 -201 107q-57 100 -55 231v0zM866 1462q4 -69 -86 -72q-70 3 -135 37q-31 15 -62 25q-33 10 -70 10q-67 0 -110 -20q-45 -23 -74 -60q-26 -35 -45 -78q-16 -45 -29 -92h125q9 41 29 64q18 22 57 22q70 -2 144 -34q39 -13 82 -23q41 -12 86 -12q63 0 102 24
q39 23 63 58q25 36 39 77q17 39 25 74h-141z" />
    <glyph glyph-name="partialdiff" unicode="&#xf2;" horiz-adv-x="1251" 
d="M78 528q2 -256 151 -403q144 -152 396 -154q254 2 401 154q145 147 147 403q-2 258 -147 408q-147 149 -401 151q-252 -2 -396 -151q-149 -150 -151 -408v0zM369 528q-2 136 55 236q55 102 201 104q149 -2 204 -104q54 -100 54 -236q0 -131 -54 -231q-55 -105 -204 -107
q-146 2 -201 107q-57 100 -55 231v0zM582 1190h203l-197 291h-321z" />
    <glyph glyph-name="product" unicode="&#xf6;" horiz-adv-x="1251" 
d="M78 528q2 -256 151 -403q144 -152 396 -154q254 2 401 154q145 147 147 403q-2 258 -147 408q-147 149 -401 151q-252 -2 -396 -151q-149 -150 -151 -408v0zM369 528q-2 136 55 236q55 102 201 104q149 -2 204 -104q54 -100 54 -236q0 -131 -54 -231q-55 -105 -204 -107
q-146 2 -201 107q-57 100 -55 231v0zM706 1223h276v239h-276v-239zM284 1223h276v239h-276v-239z" />
    <glyph glyph-name="summation" unicode="&#xf4;" horiz-adv-x="1251" 
d="M78 528q2 -256 151 -403q144 -152 396 -154q254 2 401 154q145 147 147 403q-2 258 -147 408q-147 149 -401 151q-252 -2 -396 -151q-149 -150 -151 -408v0zM369 528q-2 136 55 236q55 102 201 104q149 -2 204 -104q54 -100 54 -236q0 -131 -54 -231q-55 -105 -204 -107
q-146 2 -201 107q-57 100 -55 231v0zM271 1190h221l131 166v0l127 -166h240l-226 291h-266z" />
    <glyph glyph-name="mu" unicode="&#xf3;" horiz-adv-x="1251" 
d="M78 528q2 -256 151 -403q144 -152 396 -154q254 2 401 154q145 147 147 403q-2 258 -147 408q-147 149 -401 151q-252 -2 -396 -151q-149 -150 -151 -408v0zM369 528q-2 136 55 236q55 102 201 104q149 -2 204 -104q54 -100 54 -236q0 -131 -54 -231q-55 -105 -204 -107
q-146 2 -201 107q-57 100 -55 231v0zM1001 1481h-322l-196 -291h202z" />
    <glyph glyph-name="yen" unicode="&#xf1;" horiz-adv-x="1214" 
d="M111 0h290v555q-4 307 226 303q190 0 186 -260v-598h291v651q2 201 -76 318q-84 116 -311 118q-94 0 -178 -43q-88 -43 -146 -133h-6v148h-276v-1059zM847 1462q4 -69 -86 -72q-70 3 -135 37q-31 15 -62 25q-33 10 -70 10q-67 0 -110 -20q-45 -23 -74 -60
q-26 -35 -45 -78q-16 -45 -29 -92h125q9 41 29 64q18 22 57 22q70 -2 144 -34q39 -13 82 -23q41 -12 86 -12q63 0 102 24q39 23 63 58q25 36 39 77q17 39 25 74h-141z" />
    <glyph glyph-name="plusminus" unicode="&#xec;" horiz-adv-x="528" 
d="M119 0h291v1059h-291v-1059zM210 1190h203l-197 291h-321z" />
    <glyph glyph-name="greaterequal" unicode="&#xef;" horiz-adv-x="528" 
d="M119 0h291v1059h-291v-1059zM331 1223h276v239h-276v-239zM-91 1223h276v239h-276v-239z" />
    <glyph glyph-name="lessequal" unicode="&#xee;" horiz-adv-x="528" 
d="M119 0h291v1059h-291v-1059zM-101 1190h221l131 166v0l127 -166h240l-226 291h-266z" />
    <glyph glyph-name="infinity" unicode="&#xed;" horiz-adv-x="528" 
d="M119 0h291v1059h-291v-1059zM629 1481h-322l-196 -291h202z" />
    <glyph glyph-name="notequal" unicode="&#xe8;" horiz-adv-x="1175" 
d="M1114 459q10 125 -18 239q-15 58 -37 107q-25 49 -58 92q-129 186 -401 190q-244 -2 -389 -159q-150 -156 -152 -400q2 -249 148 -401q141 -154 393 -156q367 -4 496 357h-256q-15 -52 -76 -92q-64 -46 -154 -46q-245 -2 -260 269h764zM350 643q0 68 53 145q27 35 76 58
q45 22 113 22q106 0 160 -55q55 -59 71 -170h-473zM545 1190h203l-197 291h-321z" />
    <glyph glyph-name="Oslash" unicode="&#xeb;" horiz-adv-x="1175" 
d="M1114 459q10 125 -18 239q-15 58 -37 107q-25 49 -58 92q-129 186 -401 190q-244 -2 -389 -159q-150 -156 -152 -400q2 -249 148 -401q141 -154 393 -156q367 -4 496 357h-256q-15 -52 -76 -92q-64 -46 -154 -46q-245 -2 -260 269h764zM350 643q0 68 53 145q27 35 76 58
q45 22 113 22q106 0 160 -55q55 -59 71 -170h-473zM666 1223h276v239h-276v-239zM244 1223h276v239h-276v-239z" />
    <glyph glyph-name="AE" unicode="&#xea;" horiz-adv-x="1175" 
d="M1114 459q10 125 -18 239q-15 58 -37 107q-25 49 -58 92q-129 186 -401 190q-244 -2 -389 -159q-150 -156 -152 -400q2 -249 148 -401q141 -154 393 -156q367 -4 496 357h-256q-15 -52 -76 -92q-64 -46 -154 -46q-245 -2 -260 269h764zM350 643q0 68 53 145q27 35 76 58
q45 22 113 22q106 0 160 -55q55 -59 71 -170h-473zM234 1190h221l131 166v0l127 -166h240l-226 291h-266z" />
    <glyph glyph-name="dieresis" unicode="&#xe9;" horiz-adv-x="1175" 
d="M1114 459q10 125 -18 239q-15 58 -37 107q-25 49 -58 92q-129 186 -401 190q-244 -2 -389 -159q-150 -156 -152 -400q2 -249 148 -401q141 -154 393 -156q367 -4 496 357h-256q-15 -52 -76 -92q-64 -46 -154 -46q-245 -2 -260 269h764zM350 643q0 68 53 145q27 35 76 58
q45 22 113 22q106 0 160 -55q55 -59 71 -170h-473zM964 1481h-322l-196 -291h202z" />
    <glyph glyph-name="copyright" unicode="&#xe3;" horiz-adv-x="1175" 
d="M770 518v-108q0 -23 -4 -64q-6 -41 -27 -82q-20 -41 -69 -67q-50 -31 -136 -31q-71 0 -122 29q-54 28 -56 106q0 78 54 113q49 32 118 43q70 12 138 22q65 10 104 39v0zM389 733q21 162 193 160q79 0 133 -23q53 -28 55 -120q-2 -84 -104 -103q-48 -10 -109 -16
q-61 -8 -131 -21q-68 -8 -131 -26q-64 -17 -117 -54q-51 -32 -80 -92q-32 -57 -32 -149q2 -162 106 -238q100 -80 254 -80q100 0 192 31q95 31 164 100v0q4 -53 21 -102h295q-19 35 -27 100q-10 64 -10 136v550q0 95 -41 156q-41 59 -111 92q-67 33 -149 45q-82 8 -164 8
q-184 2 -330 -73q-147 -78 -168 -281h291zM828 1462q4 -69 -86 -72q-70 3 -135 37q-31 15 -62 25q-33 10 -70 10q-67 0 -110 -20q-45 -23 -74 -60q-26 -35 -45 -78q-16 -45 -29 -92h125q9 41 29 64q18 22 57 22q70 -2 144 -34q39 -13 82 -23q41 -12 86 -12q63 0 102 24
q39 23 63 58q25 36 39 77q17 39 25 74h-141z" />
    <glyph glyph-name="trademark" unicode="&#xe5;" horiz-adv-x="1175" 
d="M770 518v-108q0 -23 -4 -64q-6 -41 -27 -82q-20 -41 -69 -67q-50 -31 -136 -31q-71 0 -122 29q-54 28 -56 106q0 78 54 113q49 32 118 43q70 12 138 22q65 10 104 39v0zM389 733q21 162 193 160q79 0 133 -23q53 -28 55 -120q-2 -84 -104 -103q-48 -10 -109 -16
q-61 -8 -131 -21q-68 -8 -131 -26q-64 -17 -117 -54q-51 -32 -80 -92q-32 -57 -32 -149q2 -162 106 -238q100 -80 254 -80q100 0 192 31q95 31 164 100v0q4 -53 21 -102h295q-19 35 -27 100q-10 64 -10 136v550q0 95 -41 156q-41 59 -111 92q-67 33 -149 45q-82 8 -164 8
q-184 2 -330 -73q-147 -78 -168 -281h291zM467 1343q0 64 37 105q35 39 92 39q60 0 96 -39q35 -41 35 -105q0 -59 -35 -100q-36 -43 -96 -43q-57 0 -92 43q-37 41 -37 100v0zM346 1343q0 -104 76 -174q70 -75 174 -75q107 0 180 75q70 70 72 174q-2 109 -72 179
q-73 69 -180 71q-104 -2 -174 -71q-76 -70 -76 -179v0z" />
    <glyph glyph-name="paragraph" unicode="&#xe0;" horiz-adv-x="1175" 
d="M770 518v-108q0 -23 -4 -64q-6 -41 -27 -82q-20 -41 -69 -67q-50 -31 -136 -31q-71 0 -122 29q-54 28 -56 106q0 78 54 113q49 32 118 43q70 12 138 22q65 10 104 39v0zM389 733q21 162 193 160q79 0 133 -23q53 -28 55 -120q-2 -84 -104 -103q-48 -10 -109 -16
q-61 -8 -131 -21q-68 -8 -131 -26q-64 -17 -117 -54q-51 -32 -80 -92q-32 -57 -32 -149q2 -162 106 -238q100 -80 254 -80q100 0 192 31q95 31 164 100v0q4 -53 21 -102h295q-19 35 -27 100q-10 64 -10 136v550q0 95 -41 156q-41 59 -111 92q-67 33 -149 45q-82 8 -164 8
q-184 2 -330 -73q-147 -78 -168 -281h291zM546 1190h203l-197 291h-321z" />
    <glyph glyph-name="registered" unicode="&#xe4;" horiz-adv-x="1175" 
d="M770 518v-108q0 -23 -4 -64q-6 -41 -27 -82q-20 -41 -69 -67q-50 -31 -136 -31q-71 0 -122 29q-54 28 -56 106q0 78 54 113q49 32 118 43q70 12 138 22q65 10 104 39v0zM389 733q21 162 193 160q79 0 133 -23q53 -28 55 -120q-2 -84 -104 -103q-48 -10 -109 -16
q-61 -8 -131 -21q-68 -8 -131 -26q-64 -17 -117 -54q-51 -32 -80 -92q-32 -57 -32 -149q2 -162 106 -238q100 -80 254 -80q100 0 192 31q95 31 164 100v0q4 -53 21 -102h295q-19 35 -27 100q-10 64 -10 136v550q0 95 -41 156q-41 59 -111 92q-67 33 -149 45q-82 8 -164 8
q-184 2 -330 -73q-147 -78 -168 -281h291zM667 1223h276v239h-276v-239zM245 1223h276v239h-276v-239z" />
    <glyph glyph-name="germandbls" unicode="&#xe2;" horiz-adv-x="1175" 
d="M770 518v-108q0 -23 -4 -64q-6 -41 -27 -82q-20 -41 -69 -67q-50 -31 -136 -31q-71 0 -122 29q-54 28 -56 106q0 78 54 113q49 32 118 43q70 12 138 22q65 10 104 39v0zM389 733q21 162 193 160q79 0 133 -23q53 -28 55 -120q-2 -84 -104 -103q-48 -10 -109 -16
q-61 -8 -131 -21q-68 -8 -131 -26q-64 -17 -117 -54q-51 -32 -80 -92q-32 -57 -32 -149q2 -162 106 -238q100 -80 254 -80q100 0 192 31q95 31 164 100v0q4 -53 21 -102h295q-19 35 -27 100q-10 64 -10 136v550q0 95 -41 156q-41 59 -111 92q-67 33 -149 45q-82 8 -164 8
q-184 2 -330 -73q-147 -78 -168 -281h291zM235 1190h221l131 166v0l127 -166h240l-226 291h-266z" />
    <glyph glyph-name="bullet" unicode="&#xe1;" horiz-adv-x="1175" 
d="M770 518v-108q0 -23 -4 -64q-6 -41 -27 -82q-20 -41 -69 -67q-50 -31 -136 -31q-71 0 -122 29q-54 28 -56 106q0 78 54 113q49 32 118 43q70 12 138 22q65 10 104 39v0zM389 733q21 162 193 160q79 0 133 -23q53 -28 55 -120q-2 -84 -104 -103q-48 -10 -109 -16
q-61 -8 -131 -21q-68 -8 -131 -26q-64 -17 -117 -54q-51 -32 -80 -92q-32 -57 -32 -149q2 -162 106 -238q100 -80 254 -80q100 0 192 31q95 31 164 100v0q4 -53 21 -102h295q-19 35 -27 100q-10 64 -10 136v550q0 95 -41 156q-41 59 -111 92q-67 33 -149 45q-82 8 -164 8
q-184 2 -330 -73q-147 -78 -168 -281h291zM965 1481h-322l-196 -291h202z" />
    <glyph glyph-name="tilde" unicode="&#x178;" horiz-adv-x="1366" 
d="M520 0h322v561l542 901h-358l-340 -577v0l-342 577h-362l538 -893v-569zM767 1626h276v239h-276v-239zM345 1626h276v239h-276v-239z" />
    <glyph glyph-name="glyph203" unicode="&#xdd;" horiz-adv-x="1366" 
d="M520 0h322v561l542 901h-358l-340 -577v0l-342 577h-362l538 -893v-569zM1064 1884h-322l-196 -291h202z" />
    <glyph glyph-name="onehalf" unicode="&#xd9;" horiz-adv-x="1517" 
d="M1382 1462h-321v-909q0 -162 -66 -238q-67 -79 -237 -79q-94 0 -154 28q-61 29 -94 72q-29 47 -41 102q-12 56 -12 115v909h-322v-909q8 -590 623 -588q614 0 624 588v909zM718 1593h203l-197 291h-321z" />
    <glyph glyph-name="section" unicode="&#xdc;" horiz-adv-x="1517" 
d="M1382 1462h-321v-909q0 -162 -66 -238q-67 -79 -237 -79q-94 0 -154 28q-61 29 -94 72q-29 47 -41 102q-12 56 -12 115v909h-322v-909q8 -590 623 -588q614 0 624 588v909zM839 1626h276v239h-276v-239zM417 1626h276v239h-276v-239z" />
    <glyph glyph-name="threesuperior" unicode="&#xdb;" horiz-adv-x="1517" 
d="M1382 1462h-321v-909q0 -162 -66 -238q-67 -79 -237 -79q-94 0 -154 28q-61 29 -94 72q-29 47 -41 102q-12 56 -12 115v909h-322v-909q8 -590 623 -588q614 0 624 588v909zM407 1593h221l131 166v0l127 -166h240l-226 291h-266z" />
    <glyph glyph-name="twosuperior" unicode="&#xda;" horiz-adv-x="1517" 
d="M1382 1462h-321v-909q0 -162 -66 -238q-67 -79 -237 -79q-94 0 -154 28q-61 29 -94 72q-29 47 -41 102q-12 56 -12 115v909h-322v-909q8 -590 623 -588q614 0 624 588v909zM1137 1884h-322l-196 -291h202z" />
    <glyph glyph-name="glyph208" unicode="&#x160;" horiz-adv-x="1329" 
d="M49 485q6 -268 191 -393q180 -127 432 -127q299 2 454 135q154 131 154 334q-2 125 -51 205q-51 80 -125 125q-74 47 -144 67q-71 21 -114 29q-266 66 -355 107q-45 22 -63 49q-18 26 -18 65q2 92 73 131q66 35 148 35q119 2 200 -43q80 -49 88 -178h312q-4 254 -176 364
q-170 107 -410 107q-207 0 -371 -109q-172 -110 -176 -333q0 -101 39 -170q37 -70 99 -117q63 -45 141 -76q78 -33 157 -53q170 -37 299 -82q64 -23 101 -59q35 -39 35 -101q0 -55 -27 -88q-29 -37 -72 -57q-43 -21 -92 -29t-94 -8q-133 0 -225 64q-97 63 -99 206h-311z
M1032 1884h-226l-133 -166v0l-131 166h-229l227 -291h266z" />
    <glyph glyph-name="Icircumflex" unicode="&#xd5;" horiz-adv-x="1593" 
d="M78 725q2 -324 190 -537q189 -219 529 -223q344 4 530 223q186 213 188 537q-2 334 -188 551t-530 221q-340 -4 -529 -221q-188 -217 -190 -551v0zM399 725q-2 201 92 348q93 150 306 154q217 -4 309 -154q88 -147 88 -348q0 -188 -88 -336q-92 -149 -309 -153
q-213 4 -306 153q-94 148 -92 336v0zM1044 1865q4 -69 -86 -72q-70 3 -135 37q-31 15 -62 25q-33 10 -70 10q-67 0 -110 -20q-45 -23 -74 -60q-26 -35 -45 -78q-16 -45 -29 -92h125q9 41 29 64q18 22 57 22q70 -2 144 -34q39 -13 82 -23q41 -12 86 -12q63 0 102 24
q39 23 63 58q25 36 39 77q17 39 25 74h-141z" />
    <glyph glyph-name="onesuperior" unicode="&#xd2;" horiz-adv-x="1593" 
d="M78 725q2 -324 190 -537q189 -219 529 -223q344 4 530 223q186 213 188 537q-2 334 -188 551t-530 221q-340 -4 -529 -221q-188 -217 -190 -551v0zM399 725q-2 201 92 348q93 150 306 154q217 -4 309 -154q88 -147 88 -348q0 -188 -88 -336q-92 -149 -309 -153
q-213 4 -306 153q-94 148 -92 336v0zM760 1593h203l-197 291h-321z" />
    <glyph glyph-name="sterling" unicode="&#xd6;" horiz-adv-x="1593" 
d="M78 725q2 -324 190 -537q189 -219 529 -223q344 4 530 223q186 213 188 537q-2 334 -188 551t-530 221q-340 -4 -529 -221q-188 -217 -190 -551v0zM399 725q-2 201 92 348q93 150 306 154q217 -4 309 -154q88 -147 88 -348q0 -188 -88 -336q-92 -149 -309 -153
q-213 4 -306 153q-94 148 -92 336v0zM883 1626h276v239h-276v-239zM461 1626h276v239h-276v-239z" />
    <glyph glyph-name="minus" unicode="&#xd4;" horiz-adv-x="1593" 
d="M78 725q2 -324 190 -537q189 -219 529 -223q344 4 530 223q186 213 188 537q-2 334 -188 551t-530 221q-340 -4 -529 -221q-188 -217 -190 -551v0zM399 725q-2 201 92 348q93 150 306 154q217 -4 309 -154q88 -147 88 -348q0 -188 -88 -336q-92 -149 -309 -153
q-213 4 -306 153q-94 148 -92 336v0zM449 1593h221l131 166v0l127 -166h240l-226 291h-266z" />
    <glyph glyph-name="thorn" unicode="&#xd3;" horiz-adv-x="1593" 
d="M78 725q2 -324 190 -537q189 -219 529 -223q344 4 530 223q186 213 188 537q-2 334 -188 551t-530 221q-340 -4 -529 -221q-188 -217 -190 -551v0zM399 725q-2 201 92 348q93 150 306 154q217 -4 309 -154q88 -147 88 -348q0 -188 -88 -336q-92 -149 -309 -153
q-213 4 -306 153q-94 148 -92 336v0zM1178 1884h-322l-196 -291h202z" />
    <glyph glyph-name="cent" unicode="&#xd1;" horiz-adv-x="1517" 
d="M141 0h301v979h4l609 -979h321v1462h-301v-981h-4l-610 981h-320v-1462zM1002 1865q4 -69 -86 -72q-70 3 -135 37q-31 15 -62 25q-33 10 -70 10q-67 0 -110 -20q-45 -23 -74 -60q-26 -35 -45 -78q-16 -45 -29 -92h125q9 41 29 64q18 22 57 22q70 -2 144 -34
q39 -13 82 -23q41 -12 86 -12q63 0 102 24q39 23 63 58q25 36 39 77q17 39 25 74h-141z" />
    <glyph glyph-name="Thorn" unicode="&#xcc;" horiz-adv-x="604" 
d="M141 0h322v1462h-322v-1462zM246 1593h203l-197 291h-321z" />
    <glyph glyph-name="yacute" unicode="&#xcf;" horiz-adv-x="604" 
d="M141 0h322v1462h-322v-1462zM370 1626h276v239h-276v-239zM-52 1626h276v239h-276v-239z" />
    <glyph glyph-name="Yacute" unicode="&#xce;" horiz-adv-x="604" 
d="M141 0h322v1462h-322v-1462zM-65 1593h221l131 166v0l127 -166h240l-226 291h-266z" />
    <glyph glyph-name="eth" unicode="&#xcd;" horiz-adv-x="604" 
d="M141 0h322v1462h-322v-1462zM665 1884h-322l-196 -291h202z" />
    <glyph glyph-name="Eth" unicode="&#xc8;" horiz-adv-x="1327" 
d="M141 0h1110v270h-788v359h708v250h-708v313h772v270h-1094v-1462zM621 1593h203l-197 291h-321z" />
    <glyph glyph-name="brokenbar" unicode="&#xcb;" horiz-adv-x="1327" 
d="M141 0h1110v270h-788v359h708v250h-708v313h772v270h-1094v-1462zM742 1626h276v239h-276v-239zM320 1626h276v239h-276v-239z" />
    <glyph glyph-name="Zcaron" unicode="&#xca;" horiz-adv-x="1327" 
d="M141 0h1110v270h-788v359h708v250h-708v313h772v270h-1094v-1462zM310 1593h221l131 166v0l127 -166h240l-226 291h-266z" />
    <glyph glyph-name="degree" unicode="&#xc9;" horiz-adv-x="1327" 
d="M141 0h1110v270h-788v359h708v250h-708v313h772v270h-1094v-1462zM1040 1884h-322l-196 -291h202z" />
    <glyph glyph-name="Iacute" unicode="&#xc3;" horiz-adv-x="1403" 
d="M-14 0h325l115 326h547l110 -326h334l-547 1462h-329zM700 1102h4l185 -537h-379zM948 1865q4 -69 -86 -72q-70 3 -135 37q-31 15 -62 25q-33 10 -70 10q-67 0 -110 -20q-45 -23 -74 -60q-26 -35 -45 -78q-16 -45 -29 -92h125q9 41 29 64q18 22 57 22q70 -2 144 -34
q39 -13 82 -23q41 -12 86 -12q63 0 102 24q39 23 63 58q25 36 39 77q17 39 25 74h-141z" />
    <glyph glyph-name="udieresis" unicode="&#xc5;" horiz-adv-x="1403" 
d="M-14 0h325l115 326h547l110 -326h334l-547 1462h-329zM700 1102h4l185 -537h-379zM587 1746q0 64 37 105q35 39 92 39q60 0 96 -39q35 -41 35 -105q0 -59 -35 -100q-36 -43 -96 -43q-57 0 -92 43q-37 41 -37 100v0zM466 1746q0 -104 76 -174q70 -75 174 -75q107 0 180 75
q70 70 72 174q-2 109 -72 179q-73 69 -180 71q-104 -2 -174 -71q-76 -70 -76 -179v0z" />
    <glyph glyph-name="Egrave" unicode="&#xc0;" horiz-adv-x="1403" 
d="M-14 0h325l115 326h547l110 -326h334l-547 1462h-329zM700 1102h4l185 -537h-379zM664 1593h203l-197 291h-321z" />
    <glyph glyph-name="ucircumflex" unicode="&#xc4;" horiz-adv-x="1403" 
d="M-14 0h325l115 326h547l110 -326h334l-547 1462h-329zM700 1102h4l185 -537h-379zM787 1626h276v239h-276v-239zM365 1626h276v239h-276v-239z" />
    <glyph glyph-name="scaron" unicode="&#xc2;" horiz-adv-x="1403" 
d="M-14 0h325l115 326h547l110 -326h334l-547 1462h-329zM700 1102h4l185 -537h-379zM353 1593h221l131 166v0l127 -166h240l-226 291h-266z" />
    <glyph glyph-name="zcaron" unicode="&#xc1;" horiz-adv-x="1403" 
d="M-14 0h325l115 326h547l110 -326h334l-547 1462h-329zM700 1102h4l185 -537h-379zM1082 1884h-322l-196 -291h202z" />
    </font>
</defs>
</svg>
